<svg id="Layer_1" data-name="Layer 1" data-sanitized-data-name="Layer 1" xmlns="http://www.w3.org/2000/svg" viewBox="0 0 393.37 115.56">
  <defs>
    <style>
      .cls-1 {
        fill: #000;
      }

      .cls-1, .cls-2 {
        stroke-width: 0px;
      }

      .cls-2 {
        fill: #ea3724;
      }
    </style>
  </defs>
  <circle class="cls-2" cx="104.89" cy="9.36" r="9.36"></circle>
  <g>
    <path class="cls-1" d="M-.22,113.51V3.21h10.24v44.4c4.28-5.26,9.08-9.2,14.39-11.81,5.31-2.61,11.13-3.91,17.47-3.91,11.25,0,20.86,4.09,28.83,12.25,7.97,8.17,11.95,18.08,11.95,29.73s-4.02,21.34-12.06,29.48c-8.04,8.15-17.71,12.22-29.01,12.22-6.48,0-12.35-1.39-17.61-4.17-5.26-2.78-9.91-6.95-13.96-12.51v14.63H-.22ZM40.74,105.68c5.69,0,10.95-1.4,15.76-4.2,4.82-2.8,8.65-6.74,11.49-11.81,2.85-5.07,4.27-10.44,4.27-16.09s-1.44-11.05-4.31-16.17c-2.87-5.12-6.73-9.11-11.57-11.96-4.84-2.86-10.01-4.28-15.51-4.28s-10.91,1.43-15.94,4.28c-5.04,2.85-8.9,6.69-11.6,11.52-2.7,4.83-4.05,10.27-4.05,16.31,0,9.22,3.03,16.92,9.08,23.11,6.06,6.19,13.51,9.29,22.37,9.29Z"></path>
    <path class="cls-1" d="M131.22,3.21h10.24v62.84l36.9-32.12h15.04l-43.74,37.96,46.3,41.62h-14.41l-40.08-35.83v35.83h-10.24V3.21Z"></path>
    <path class="cls-1" d="M215.41,4.38h10.24v29.55h16.24v8.85h-16.24v70.73h-10.24V42.78h-13.97v-8.85h13.97V4.38Z"></path>
    <path class="cls-1" d="M253.37,33.93h10.46v11.63c3.12-4.58,6.41-8.01,9.87-10.28,3.46-2.27,7.07-3.4,10.83-3.4,2.83,0,5.85.9,9.07,2.71l-5.34,8.63c-2.15-.93-3.95-1.39-5.41-1.39-3.41,0-6.7,1.4-9.87,4.2-3.17,2.8-5.59,7.16-7.24,13.06-1.27,4.53-1.9,13.7-1.9,27.5v26.92h-10.46V33.93Z"></path>
    <path class="cls-1" d="M323.22,33.93h12.29l21.17,29.11,20.94-29.11h12.31l-27.09,37.59,30.52,41.99h-12.47l-24.22-33.42-24.08,33.42h-12.22l30.15-41.91-27.3-37.67Z"></path>
  </g>
  <g>
    <g>
      <rect class="cls-2" x="37.9" y="53.12" width="6.63" height="25.45" rx="2.03" ry="2.03"></rect>
      <rect class="cls-2" x="37.9" y="53.12" width="6.63" height="25.45" rx="2.03" ry="2.03" transform="translate(107.06 24.63) rotate(90)"></rect>
    </g>
    <rect class="cls-1" x="38.19" y="79.13" width="6.05" height="18.54" rx="1.85" ry="1.85" transform="translate(129.61 47.18) rotate(90)"></rect>
  </g>
  <path class="cls-1" d="M99.77,33.93h10.24v79.58h-10.24V33.93Z"></path>
  <circle class="cls-2" cx="305.89" cy="9.36" r="9.36"></circle>
  <path class="cls-1" d="M300.77,33.93h10.24v79.58h-10.24V33.93Z"></path>
</svg>