<svg xmlns="http://www.w3.org/2000/svg" width="72" height="32" fill="none"><g fill="#000" clip-path="url(#a)"><path d="M67.429 27c-1.25 0-2.212-.355-2.884-1.064-.672-.71-1.008-1.68-1.008-2.912v-8.008H62.08c-.15 0-.308-.066-.476-.196-.15-.112-.224-.29-.224-.532v-1.4l2.324-.364.728-3.92a.593.593 0 0 1 .252-.42.861.861 0 0 1 .532-.168h1.792v4.536h3.78v2.464h-3.78V22.8c0 .429.112.774.336 1.036.224.242.523.364.896.364.261 0 .439-.019.532-.056l.364-.168.308-.168a.398.398 0 0 1 .224-.056c.15 0 .243.018.28.056l.196.224 1.036 1.68A6.013 6.013 0 0 1 67.429 27Zm-9.972-16.744c-.13.43-.196.868-.196 1.316v.952h3.752v2.464H57.4v9.016l.84.14c.093.019.177.038.252.056.093.019.177.028.252.028l.224.028c.466.112.7.402.7.868v1.652H51.8v-1.652c0-.466.233-.756.7-.868a.62.62 0 0 0 .196-.028l.42-.084.812-.14v-8.988l-1.232-.196c-.299-.056-.523-.149-.672-.28-.15-.13-.224-.326-.224-.588v-1.4h2.128v-1.064c0-.858.121-1.596.364-2.212.28-.709.634-1.269 1.064-1.68a5.176 5.176 0 0 1 1.68-1.036c.653-.242 1.4-.364 2.24-.364.672 0 1.288.084 1.848.252l-.056 1.736c-.019.28-.15.448-.392.504-.299.075-.57.112-.812.112-.448 0-.812.038-1.092.112a1.74 1.74 0 0 0-.812.476 2.094 2.094 0 0 0-.504.868Zm-7.662-2.044a2.1 2.1 0 0 1-.196.84c-.112.261-.27.495-.476.7a2.031 2.031 0 0 1-.7.476 2.317 2.317 0 0 1-1.736 0 2.13 2.13 0 0 1-.672-.476 2.219 2.219 0 0 1-.476-.7 2.11 2.11 0 0 1-.168-.84c0-.299.056-.588.168-.868.094-.243.252-.476.476-.7.206-.205.43-.355.672-.448.336-.13.626-.196.868-.196.243 0 .532.065.868.196.28.112.514.261.7.448.224.224.383.457.476.7.131.317.196.607.196.868Zm.896 16.044c.467.112.7.401.7.868v1.652h-7.7v-1.652c0-.467.234-.756.7-.868l.168-.028.42-.084.84-.14v-8.82l-.84-.14a5.49 5.49 0 0 1-.252-.056.528.528 0 0 0-.168-.028l-.168-.028c-.466-.112-.7-.401-.7-.868v-1.652h5.572v11.592l.84.14c.094.019.168.037.224.056.075.019.14.028.196.028l.168.028Zm-7.625-3.527c.206.448.308.942.308 1.483a4.89 4.89 0 0 1-.392 1.933 4.615 4.615 0 0 1-1.092 1.512 4.653 4.653 0 0 1-1.792.98c-.672.242-1.493.363-2.464.363-.84 0-1.67-.074-2.492-.224-.802-.149-1.493-.335-2.072-.56v-4.06h1.624c.336 0 .551.178.644.533.038.205.103.756.196 1.651.504.15 1.26.224 2.268.224a3.74 3.74 0 0 0 1.064-.14c.318-.111.56-.242.728-.392.224-.186.364-.363.42-.532.075-.205.112-.429.112-.672 0-.335-.093-.606-.28-.811-.168-.187-.438-.374-.812-.56a7.29 7.29 0 0 0-1.12-.42l-1.316-.42c-.298-.094-.728-.271-1.288-.533a4.23 4.23 0 0 1-1.148-.756 3.034 3.034 0 0 1-.784-1.12c-.205-.466-.308-1.007-.308-1.623 0-.598.112-1.158.336-1.68a3.91 3.91 0 0 1 1.036-1.4c.467-.411 1.036-.729 1.708-.953a7.301 7.301 0 0 1 2.324-.364c.71 0 1.335.056 1.876.168.542.094 1.316.29 2.324.588h-.028v4.06H41.05c-.336 0-.55-.177-.644-.532-.056-.242-.121-.765-.196-1.568-.429-.13-.989-.195-1.68-.195-.672 0-1.204.14-1.596.42-.392.28-.588.662-.588 1.147 0 .28.103.542.308.785.15.168.411.345.784.532.43.205.803.354 1.12.448.15.037.579.168 1.288.392.355.111.794.289 1.316.532.448.205.822.448 1.12.727.336.28.598.626.784 1.037ZM24.949 32h-.069c-.025-.018-.05-.048-.079-.053-2.613-.395-4.757-1.658-6.528-3.577-.278-.3-.537-.402-.929-.401-4.438.008-8.876.006-13.313-.008-1.633-.004-3.157-1.1-3.735-2.624-.114-.303-.198-.617-.296-.927v-8c.08-.004.159-.01.238-.01h26.99c.1 0 .198.01.315.017.005.086.014.152.014.217 0 2.461.011 4.922-.01 7.382-.013.41-.091.815-.233 1.2a4.093 4.093 0 0 1-3.787 2.74c-.3.008-.47.112-.446.399.017.291.082.578.19.85.384.877 1.008 1.59 1.651 2.282.163.178.243.33.027.513ZM0 12.24h1.753v1.708H0V12.24Zm0 2.187h1.754v1.71H0v-1.71Zm0-4.307h1.755v1.709H0v-1.71Zm0-4.308h1.755V7.52H0V5.812Zm4.879-.874H3.175v-1.69h1.704v1.69Zm20.923 9.476h1.713v1.688h-1.713v-1.688Zm-10.752 0h1.734v1.71c-.531 0-1.05.006-1.567-.01-.057 0-.158-.121-.16-.188-.014-.497-.008-.995-.008-1.512ZM4.356 9.673V7.966h1.689v1.707H4.356Zm4.288.006V7.966h1.69v1.713h-1.69Zm17.158 2.576h1.706v1.705h-1.706v-1.705Zm-9.02-2.575h-1.707V7.967h1.707V9.68Zm4.273-.002h-1.678V7.973h1.678v1.705Zm.465-.008V7.964h1.691V9.67h-1.69Zm5.995-1.7v1.707H25.81V7.97h1.705Zm-12.449 5.985V12.26h1.718v1.696h-1.718ZM6.92 3.243h1.702v1.69H6.921v-1.69Zm8.268 2.038h-1.704v-1.7h1.704v1.7Zm6.328 9.125h1.7v1.696h-1.7v-1.696Zm-.46 1.703h-1.67v-1.687h1.67v1.687Zm-8.562-1.687v1.68h-1.701v-1.68h1.7Zm-2.161 1.684H8.647v-1.693h1.686v1.693Zm-4.28-1.691v1.687H4.362v-1.687h1.691Zm17.163-.452h-1.691v-1.707h1.691v1.707Zm-2.142-1.703v1.693h-1.703V12.26h1.703Zm-8.59 1.702h-1.69v-1.705h1.69v1.705Zm-3.838-1.708h1.68v1.705h-1.68v-1.705Zm-2.59.012v1.698H4.363v-1.698h1.693ZM18.058.124v1.713h-1.681V.124h1.681Zm3.012 10.011v1.669h-1.688v-1.67h1.689Zm4.727 1.667V10.13h1.72v1.672h-1.72ZM24.325 1.42v1.694h-1.683V1.421h1.683ZM3.89 12.256v1.7H2.21v-1.7h1.68Zm2.611-.002h1.693v1.698H6.501v-1.698Zm4.292-2.13h1.697v1.686h-1.697v-1.686Zm2.139 2.128h1.685v1.713h-1.685v-1.713Zm4.295-.003h1.69v1.71h-1.69v-1.71Zm6.437.003h1.684v1.713h-1.684v-1.713Zm-9.045-4.286v1.713h-1.674V7.966h1.674Zm-6.42-.001v1.713h-1.69V7.965H8.2ZM3.894 14.42v1.678H2.213V14.42h1.681ZM3.89 7.968V9.68H2.215V7.968H3.89Zm4.302 8.143H6.51v-1.7h1.68l.002 1.7Zm6.432-1.697v1.688H12.94v-1.688h1.685Zm-3.831-8.59h1.697v1.687h-1.697V5.824Zm8.134 8.594v1.688h-1.69v-1.688h1.69ZM4.36 5.827h1.692v1.686H4.36V5.827Zm19.312 8.581h1.676v1.694h-1.676v-1.694ZM19.49 5.26V3.582h1.683V5.26H19.49ZM9.514.123h1.683v1.704H9.514V.123Zm9.418 10.009v1.675h-1.693v-1.675h1.693Zm-4.306.002v1.672h-1.683v-1.672h1.683Zm-8.116-.012h1.676v1.684H6.51v-1.684Zm-4.3-.001h1.674v1.686H2.209V10.12ZM25.346 7.52h-1.674V5.834h1.674V7.52ZM18.93 5.836v1.67h-1.689v-1.67h1.69Zm4.733 5.972v-1.676h1.684v1.676h-1.684Z"/></g><defs><clipPath id="a"><path fill="#fff" d="M0 0h72v32H0z"/></clipPath></defs></svg>